<svg width="90" height="86" viewBox="0 0 90 86" fill="none" xmlns="http://www.w3.org/2000/svg">
<path d="M78.75 10.75V55.5417C78.75 58.8679 77.3672 62.0579 74.9058 64.41C72.4444 66.762 69.106 68.0833 65.625 68.0833C62.144 68.0833 58.8056 66.762 56.3442 64.41C53.8828 62.0579 52.5 58.8679 52.5 55.5417C52.5 52.2154 53.8828 49.0254 56.3442 46.6734C58.8056 44.3214 62.144 43 65.625 43C67.65 43 69.5625 43.43 71.25 44.2183V23.1842L33.75 30.8167V62.7083C33.75 66.0346 32.3672 69.2246 29.9058 71.5766C27.4444 73.9286 24.106 75.25 20.625 75.25C17.144 75.25 13.8056 73.9286 11.3442 71.5766C8.88281 69.2246 7.5 66.0346 7.5 62.7083C7.5 59.3821 8.88281 56.1921 11.3442 53.84C13.8056 51.488 17.144 50.1667 20.625 50.1667C22.65 50.1667 24.5625 50.5967 26.25 51.385V21.5L78.75 10.75Z" fill="white"/>
</svg>
